. 
  
http://www.torrentday.com/        :     The Hottest Private Tracker On The Net!!!


               www . TorrentDay . Com 
(((((((((((((= Enjoy No RAR releases =))))))))))))))))))))


...................................NFO:....................................

.................................................................................
................................................................................
................................................................................
................................................................................
................................................................................
................................................................................
............................................ MMMMMMMMMMMMM......................
........................................MMM.............. MMM...................
.....................................MM......................MM ................
...................................MM..........................M,...............
.................................M: ............................MM..............
...............................M ...........MMMMMMM..............MM.............
                             M8.        MMMMMMMMMMMMM .          NM             
                           ?M.        MMMMMMMMMMMMMMMMM          .MM            
                          M.       +MMMMMMMMM       .~MM.         MM~           
                        IM       .MMMMMMM7            ,MM        .MMM           
                       M:       DMMMMMM.               MM        DMMM.          
                      M.      .MMMMMMM                  M        MMMMZ          
. .  . .. .  . .. .  M .. .  ?MMMMMM?. .. .  . .. .  . .M .  . ..MMMM$ .. .  . .
                   OI      .MMMMMMM                     M        MMMMZ          
                 .M       ,MMMMMM,                     MM       ,MMMM           
                .M.      ,M.MMMM                       M        MMMMM           
                MNMI.   MM MM+M.                       M       .MMMMM           
...............M....MMMIM.$MOM....................... M....... MMMMMM...........
............. M ......MMM7MMI....................... MD...... MMMMMM. ..........
............ M?......O?M.MM.........................=M...... MMMMMMM M M........
.............M...... M  MM .........................M.......MMMMMMM   M. .M ....
............M.......M,M M..........................M.......8MMMMMM .7.MM,.M ....
...........M ......M MMM.........................MM.......MMMMMMM ...M..MN .....
...........M..... MZ MMM........................MM.......MMMMMMM................
..........M,.....MM+MZM .......................M .......MMMMMMM ................
......... ,......M.M M .......................M ...... MMMMMMM .................
.........M .....M.M M .......................MNMM ....MMMMMMM...................
........ MM.... MM.M.......................M..... MMMMMMMMM~....................
......... NMMMMMMMIM..................... M........MMMMMMM .....................
...........MMMMMMMM.....................M ...... MMMMOMMM.......................
........... MMMMMMM...................~M........MM.MMMM ........................
................MMM................. M,......,MMM.MMMM .........................
...................................MM.......MMM.  MM ...........................
................................. M ......MMMM,M M: ............................
............................... M.......MM IM.MMM...............................
............................. MMM. .. MMMM.M7MM ................................
...............................MMMMMMM~ , M8M,..................................
................................MMMMM: M IM.....................................
................................MMMMMZM.M ......................................
................................. 7MMMM.........................................
....................................,,..........................................
                                                                                
                      MAGNET GRoUP PROUDLY PRESENTS :

General
Complete name                    : Tekken.2010.DVDRip.x264.AC3-MAGNET.avi
Format                           : AVI
Format/Info                      : Audio Video Interleave
File size                        : 634 MiB
Duration                         : 1h 27mn
Overall bit rate                 : 1 013 Kbps

Video
ID                               : 0
Format                           : AVC
Format/Info                      : Advanced Video Codec
Format profile                   : High@L3.0
Format settings, CABAC           : Yes
Format settings, ReFrames        : 3 frames
Codec ID                         : H264
Duration                         : 1h 27mn
Bit rate                         : 555 Kbps
Width                            : 720 pixels
Height                           : 402 pixels
Display aspect ratio             : 16:9
Frame rate mode                  : Variable
Frame rate                       : 25.000 fps
Color space                      : YUV
Chroma subsampling               : 4:2:0
Bit depth                        : 8 bits
Scan type                        : Progressive
Bits/(Pixel*Frame)               : 0.077
Stream size                      : 347 MiB (55%)
Writing library                  : x264 core 85 Ubuntu_2:0.85.1448+git1a6d32-4
Encoding settings                : cabac=1 / ref=3 / deblock=1:0:0 / analyse=0x3:0x113 / me=hex / subme=7 / psy=1 / psy_rd=1,00:0,00 / mixed_ref=1 / me_range=16 / chroma_me=1 / trellis=1 / 8x8dct=1 / cqm=0 / deadzone=21,11 / fast_pskip=1 / chroma_qp_offset=-2 / threads=3 / sliced_threads=0 / nr=0 / decimate=1 / mbaff=0 / constrained_intra=0 / bframes=3 / b_pyramid=0 / b_adapt=1 / b_bias=0 / direct=1 / wpredb=1 / wpredp=2 / keyint=250 / keyint_min=25 / scenecut=40 / intra_refresh=0 / rc_lookahead=40 / rc=crf / mbtree=1 / crf=26,0 / qcomp=0,60 / qpmin=10 / qpmax=51 / qpstep=4 / ip_ratio=1,40 / aq=1:1,00

Audio
ID                               : 1
Format                           : AC-3
Format/Info                      : Audio Coding 3
Mode extension                   : CM (complete main)
Codec ID                         : 2000
Duration                         : 1h 27mn
Bit rate mode                    : Constant
Bit rate                         : 448 Kbps
Channel(s)                       : 6 channels
Channel positions                : Front: L C R, Side: L R, LFE
Sampling rate                    : 48.0 KHz
Bit depth                        : 16 bits
Stream size                      : 280 MiB (44%)
Alignment                        : Aligned on interleaves
Interleave, duration             : 40 ms (1.00 video frame)